<svg width="24" height="15" viewBox="0 0 24 15" fill="none" xmlns="http://www.w3.org/2000/svg">
                                <path d="M12 0C6.76598 0 2.22933 3.04786 0 7.5C2.22933 11.9521 6.76598 15 12 15C17.2339 15 21.7706 11.9521 24 7.5C21.7707 3.04786 17.2339 0 12 0ZM17.9168 3.97744C19.3269 4.87683 20.5217 6.08152 21.4193 7.5C20.5218 8.91848 19.3268 10.1232 17.9168 11.0226C16.1451 12.1527 14.099 12.75 12 12.75C9.90094 12.75 7.85494 12.1527 6.0832 11.0226C4.6732 10.1231 3.47836 8.91844 2.58084 7.5C3.47831 6.08147 4.6732 4.87678 6.0832 3.97744C6.17503 3.91884 6.2678 3.86208 6.36112 3.80634C6.12773 4.44684 6 5.13811 6 5.85938C6 9.17302 8.68631 11.8594 12 11.8594C15.3136 11.8594 18 9.17302 18 5.85938C18 5.13811 17.8723 4.44684 17.6389 3.8063C17.7321 3.86203 17.825 3.91884 17.9168 3.97744ZM12 5.10938C12 6.35203 10.9927 7.35938 9.75 7.35938C8.50734 7.35938 7.5 6.35203 7.5 5.10938C7.5 3.86672 8.50734 2.85938 9.75 2.85938C10.9927 2.85938 12 3.86672 12 5.10938Z" fill="white" />
                            </svg>