 <svg width="10" height="10" viewBox="0 0 10 10" fill="none" xmlns="http://www.w3.org/2000/svg">
                                    <g clip-path="url(#clip0)">
                                        <path d="M6.49475 5.00007L9.69023 1.80459C10.1031 1.39173 10.1031 0.722755 9.69023 0.309892C9.27737 -0.102972 8.60839 -0.102972 8.19555 0.309892L5.00007 3.50573L1.80459 0.310251C1.39173 -0.102612 0.722755 -0.102612 0.309891 0.310251C-0.102972 0.723114 -0.102972 1.39209 0.309891 1.80495L3.50537 5.00043L0.309891 8.19591C-0.102972 8.60877 -0.102972 9.27774 0.309891 9.69059C0.722755 10.1035 1.39173 10.1035 1.80459 9.69059L5.00007 6.49513L8.19555 9.69059C8.60841 10.1035 9.27738 10.1035 9.69023 9.69059C10.1031 9.27773 10.1031 8.60875 9.69023 8.19591L6.49475 5.00007Z" fill="white" />
                                    </g>
                                    <defs>
                                        <clipPath id="clip0">
                                            <rect width="10" height="10" fill="white" />
                                        </clipPath>
                                    </defs>
                                </svg>