 <svg width="10" height="16" viewBox="0 0 10 16" fill="none" xmlns="http://www.w3.org/2000/svg">
                            <path d="M8.50019 15.875C8.38504 15.8757 8.27088 15.8536 8.16427 15.8101C8.05766 15.7665 7.9607 15.7024 7.87894 15.6213L0.878941 8.62126C0.796928 8.53992 0.731834 8.44314 0.687411 8.33651C0.642988 8.22989 0.620117 8.11552 0.620117 8.00001C0.620117 7.8845 0.642988 7.77013 0.687411 7.6635C0.731834 7.55688 0.796928 7.4601 0.878941 7.37876L7.87894 0.37876C8.04371 0.213994 8.26718 0.121429 8.50019 0.121429C8.7332 0.121429 8.95667 0.213994 9.12144 0.37876C9.28621 0.543525 9.37877 0.766996 9.37877 1.00001C9.37877 1.23302 9.28621 1.45649 9.12144 1.62126L2.73394 8.00001L9.12144 14.3788C9.20345 14.4601 9.26855 14.5569 9.31297 14.6635C9.35739 14.7701 9.38026 14.8845 9.38026 15C9.38026 15.1155 9.35739 15.2299 9.31297 15.3365C9.26855 15.4431 9.20345 15.5399 9.12144 15.6213C9.03968 15.7024 8.94272 15.7665 8.83611 15.8101C8.7295 15.8536 8.61535 15.8757 8.50019 15.875Z" fill="white" />
                        </svg>