<svg width="10" height="16" viewBox="0 0 10 16" fill="none" xmlns="http://www.w3.org/2000/svg">
                            <path d="M1.74983 15.3125C1.6429 15.3131 1.5369 15.2926 1.4379 15.2522C1.33891 15.2118 1.24887 15.1522 1.17295 15.0769C1.0968 15.0013 1.03635 14.9115 0.995104 14.8125C0.953855 14.7135 0.932617 14.6073 0.932617 14.5C0.932617 14.3927 0.953855 14.2865 0.995104 14.1875C1.03635 14.0885 1.0968 13.9987 1.17295 13.9231L7.1042 8L1.17295 2.07687C1.01996 1.92388 0.934004 1.71637 0.934004 1.5C0.934004 1.39286 0.955106 1.28678 0.996105 1.1878C1.0371 1.08882 1.0972 0.998879 1.17295 0.923123C1.24871 0.847367 1.33865 0.787274 1.43763 0.746275C1.53661 0.705276 1.64269 0.684174 1.74983 0.684174C1.9662 0.684174 2.17371 0.770126 2.3267 0.923123L8.8267 7.42312C8.90286 7.49866 8.9633 7.58852 9.00455 7.68753C9.0458 7.78654 9.06704 7.89274 9.06704 8C9.06704 8.10726 9.0458 8.21346 9.00455 8.31247C8.9633 8.41148 8.90286 8.50134 8.8267 8.57687L2.3267 15.0769C2.25078 15.1522 2.16074 15.2118 2.06175 15.2522C1.96276 15.2926 1.85676 15.3131 1.74983 15.3125Z" fill="white" />
                        </svg>