<svg width="28" height="28" viewBox="0 0 28 28" fill="none" xmlns="http://www.w3.org/2000/svg">
                            <circle cx="14" cy="14" r="14" fill="#565C72" />
                            <g clip-path="url(#clip0)">
                                <path d="M16.3912 14L21.504 8.8872C22.1646 8.22662 22.1646 7.15626 21.504 6.49568C20.8434 5.8351 19.773 5.8351 19.1125 6.49568L13.9997 11.609L8.88695 6.49626C8.22637 5.83567 7.15602 5.83567 6.49544 6.49626C5.83485 7.15684 5.83485 8.22719 6.49544 8.88777L11.6082 14.0005L6.49544 19.1133C5.83485 19.7739 5.83485 20.8442 6.49544 21.5048C7.15602 22.1654 8.22637 22.1654 8.88695 21.5048L13.9997 16.3921L19.1125 21.5048C19.7731 22.1654 20.8434 22.1654 21.504 21.5048C22.1646 20.8442 22.1646 19.7739 21.504 19.1133L16.3912 14Z" fill="white" />
                            </g>
                            <defs>
                                <clipPath id="clip0">
                                    <rect x="6" y="6" width="16" height="16" fill="white" />
                                </clipPath>
                            </defs>
                        </svg>