<svg width="30" height="14" viewBox="0 0 30 14" fill="none" xmlns="http://www.w3.org/2000/svg">
                    <path d="M29.7306 6.28533L24.1803 0.71907C23.8129 0.350698 23.2168 0.350698 22.8494 0.71907C22.482 1.08739 22.497 1.72002 22.497 2.32824V5.13997H7.50113V2.32824C7.50113 1.72002 7.51613 1.08739 7.14873 0.71907C6.78134 0.350698 6.18523 0.350698 5.81784 0.71907L0.267504 6.28533C0.0716276 6.48214 -0.0118015 6.74272 0.00133541 6.99953C-0.0118015 7.25727 0.0716276 7.5178 0.267504 7.71466L5.81877 13.2809C6.18616 13.6493 6.78227 13.6493 7.14967 13.2809C7.51706 12.9126 7.50206 12.0691 7.50206 11.7008V8.88904H22.4979V11.7008C22.4979 12.309 22.4829 12.9126 22.8503 13.2809C23.2176 13.6492 23.8138 13.6493 24.1812 13.2809L29.7325 7.71461C29.9284 7.5178 30.0118 7.25722 29.9987 6.99948C30.0099 6.74267 29.9265 6.48209 29.7306 6.28533Z" fill="white" />
                </svg>