<svg width="36" height="36" viewBox="0 0 36 36" fill="none" xmlns="http://www.w3.org/2000/svg">
<path d="M18 0C14.4399 0 10.9598 1.05568 7.99974 3.03355C5.03966 5.01141 2.73255 7.82263 1.37018 11.1117C0.00779904 14.4008 -0.348661 18.02 0.345873 21.5116C1.04041 25.0033 2.75474 28.2106 5.27209 30.7279C7.78943 33.2453 10.9967 34.9596 14.4884 35.6541C17.98 36.3487 21.5992 35.9922 24.8883 34.6298C28.1774 33.2674 30.9886 30.9603 32.9665 28.0003C34.9443 25.0402 36 21.5601 36 18C35.9939 13.228 34.0955 8.65315 30.7212 5.27882C27.3468 1.90449 22.772 0.00610624 18 0ZM23.8754 19.3846H19.3846V23.8754C19.3846 24.2426 19.2387 24.5948 18.9791 24.8545C18.7194 25.1141 18.3672 25.26 18 25.26C17.6328 25.26 17.2806 25.1141 17.0209 24.8545C16.7613 24.5948 16.6154 24.2426 16.6154 23.8754V19.3846H12.1246C11.7574 19.3846 11.4052 19.2387 11.1456 18.9791C10.8859 18.7194 10.74 18.3672 10.74 18C10.74 17.6328 10.8859 17.2806 11.1456 17.0209C11.4052 16.7613 11.7574 16.6154 12.1246 16.6154H16.6154V12.1246C16.6154 11.7574 16.7613 11.4052 17.0209 11.1455C17.2806 10.8859 17.6328 10.74 18 10.74C18.3672 10.74 18.7194 10.8859 18.9791 11.1455C19.2387 11.4052 19.3846 11.7574 19.3846 12.1246V16.6154H23.8754C24.0572 16.6154 24.2373 16.6512 24.4053 16.7208C24.5732 16.7904 24.7259 16.8924 24.8545 17.0209C24.983 17.1495 25.085 17.3021 25.1546 17.4701C25.2242 17.6381 25.26 17.8182 25.26 18C25.26 18.1818 25.2242 18.3619 25.1546 18.5299C25.085 18.6979 24.983 18.8505 24.8545 18.9791C24.7259 19.1076 24.5732 19.2096 24.4053 19.2792C24.2373 19.3488 24.0572 19.3846 23.8754 19.3846Z" fill="#A6ACBC"/>
</svg>
